<svg xmlns="http://www.w3.org/2000/svg" width="800" height="450" viewBox="0 0 800 450" role="img" aria-labelledby="title desc">
<title id="title">Desired-State Enforcer plain guide thumbnail</title><desc id="desc">Unique generated plain-language thumbnail for Desired-State Enforcer.</desc>
<style>.font{font-family:Inter,Segoe UI,Arial,sans-serif}.float{animation:float 3.8s ease-in-out infinite}@keyframes float{0%,100%{transform:translateY(0)}50%{transform:translateY(-12px)}}</style>
<rect width="800" height="450" fill="#fff"/><rect x="24" y="24" width="752" height="402" rx="28" fill="hsl(207 70% 96%)"/><circle cx="650" cy="118" r="96" fill="#fff4d6"/><circle class="float" cx="650" cy="118" r="54" fill="#fff" stroke="#b7791f" stroke-width="7"/><path class="float" d="M650 82 L690 118 L650 160 L610 118 Z" fill="#f59e0b" opacity=".9"/><rect x="520" y="202" width="16" height="170" rx="8" fill="#f59e0b" opacity=".72"/><rect x="548" y="175" width="16" height="197" rx="8" fill="#b7791f" opacity=".72"/><rect x="576" y="265" width="16" height="107" rx="8" fill="#f59e0b" opacity=".72"/><rect x="604" y="301" width="16" height="71" rx="8" fill="#b7791f" opacity=".72"/><rect x="632" y="184" width="16" height="188" rx="8" fill="#f59e0b" opacity=".72"/><rect x="660" y="184" width="16" height="188" rx="8" fill="#b7791f" opacity=".72"/><rect x="688" y="193" width="16" height="179" rx="8" fill="#f59e0b" opacity=".72"/><rect x="716" y="211" width="16" height="161" rx="8" fill="#b7791f" opacity=".72"/>
<g class="font"><text x="60" y="82" font-size="18" font-weight="900" fill="#b7791f">PLAIN GUIDE / SYSTEM</text><text x="60" y="148" font-size="40" font-weight="900" fill="#111827">Desired-State Enforcer</text><text x="60" y="252" font-size="22" font-weight="550" fill="#374151">Makes the owner&#x27;s chosen AC state win</text><text x="60" y="282" font-size="22" font-weight="550" fill="#374151">automatically: if someone else turns the...</text><text x="60" y="372" font-size="18" font-weight="900" fill="#b7791f">Searchable guard article</text></g></svg>