<svg xmlns="http://www.w3.org/2000/svg" width="800" height="450" viewBox="0 0 800 450" role="img" aria-labelledby="title desc">
<title id="title">Thermal Momentum plain guide thumbnail</title><desc id="desc">Unique generated plain-language thumbnail for Thermal Momentum.</desc>
<style>.font{font-family:Inter,Segoe UI,Arial,sans-serif}.float{animation:float 3.8s ease-in-out infinite}@keyframes float{0%,100%{transform:translateY(0)}50%{transform:translateY(-12px)}}</style>
<rect width="800" height="450" fill="#fff"/><rect x="24" y="24" width="752" height="402" rx="28" fill="hsl(70 70% 96%)"/><circle cx="650" cy="118" r="96" fill="#e8f0ff"/><circle class="float" cx="650" cy="118" r="54" fill="#fff" stroke="#2563eb" stroke-width="7"/><path class="float" d="M650 82 L690 118 L650 160 L610 118 Z" fill="#38bdf8" opacity=".9"/><rect x="520" y="274" width="16" height="98" rx="8" fill="#38bdf8" opacity=".72"/><rect x="548" y="256" width="16" height="116" rx="8" fill="#2563eb" opacity=".72"/><rect x="576" y="292" width="16" height="80" rx="8" fill="#38bdf8" opacity=".72"/><rect x="604" y="274" width="16" height="98" rx="8" fill="#2563eb" opacity=".72"/><rect x="632" y="175" width="16" height="197" rx="8" fill="#38bdf8" opacity=".72"/><rect x="660" y="292" width="16" height="80" rx="8" fill="#2563eb" opacity=".72"/><rect x="688" y="202" width="16" height="170" rx="8" fill="#38bdf8" opacity=".72"/><rect x="716" y="193" width="16" height="179" rx="8" fill="#2563eb" opacity=".72"/>
<g class="font"><text x="60" y="82" font-size="18" font-weight="900" fill="#2563eb">PLAIN GUIDE / SENSOR</text><text x="60" y="148" font-size="40" font-weight="900" fill="#111827">Thermal Momentum</text><text x="60" y="252" font-size="22" font-weight="550" fill="#374151">Waits when the room is already cooling</text><text x="60" y="282" font-size="22" font-weight="550" fill="#374151">fast enough to reach target soon on its...</text><text x="60" y="372" font-size="18" font-weight="900" fill="#2563eb">Searchable guard article</text></g></svg>