<svg xmlns="http://www.w3.org/2000/svg" width="800" height="450" viewBox="0 0 800 450" role="img" aria-labelledby="title desc">
<title id="title">Comfort Sync (quiet recovery) plain guide thumbnail</title><desc id="desc">Unique generated plain-language thumbnail for Comfort Sync (quiet recovery).</desc>
<style>.font{font-family:Inter,Segoe UI,Arial,sans-serif}.float{animation:float 3.8s ease-in-out infinite}@keyframes float{0%,100%{transform:translateY(0)}50%{transform:translateY(-12px)}}</style>
<rect width="800" height="450" fill="#fff"/><rect x="24" y="24" width="752" height="402" rx="28" fill="hsl(18 70% 96%)"/><circle cx="650" cy="118" r="96" fill="#dff4f0"/><circle class="float" cx="650" cy="118" r="54" fill="#fff" stroke="#0f766e" stroke-width="7"/><path class="float" d="M650 82 L690 118 L650 160 L610 118 Z" fill="#14b8a6" opacity=".9"/><rect x="520" y="301" width="16" height="71" rx="8" fill="#14b8a6" opacity=".72"/><rect x="548" y="292" width="16" height="80" rx="8" fill="#0f766e" opacity=".72"/><rect x="576" y="274" width="16" height="98" rx="8" fill="#14b8a6" opacity=".72"/><rect x="604" y="274" width="16" height="98" rx="8" fill="#0f766e" opacity=".72"/><rect x="632" y="220" width="16" height="152" rx="8" fill="#14b8a6" opacity=".72"/><rect x="660" y="184" width="16" height="188" rx="8" fill="#0f766e" opacity=".72"/><rect x="688" y="184" width="16" height="188" rx="8" fill="#14b8a6" opacity=".72"/><rect x="716" y="256" width="16" height="116" rx="8" fill="#0f766e" opacity=".72"/>
<g class="font"><text x="60" y="82" font-size="18" font-weight="900" fill="#0f766e">PLAIN GUIDE / CORE</text><text x="60" y="148" font-size="40" font-weight="900" fill="#111827">Comfort Sync (quiet</text><text x="60" y="194" font-size="40" font-weight="900" fill="#111827">recovery)</text><text x="60" y="252" font-size="22" font-weight="550" fill="#374151">Spaces out and softens corrections so a</text><text x="60" y="282" font-size="22" font-weight="550" fill="#374151">fixed thermostat does not look like an...</text><text x="60" y="372" font-size="18" font-weight="900" fill="#0f766e">Searchable guard article</text></g></svg>